<?xml version="1.0" standalone="no"?>
<!DOCTYPE svg PUBLIC "-//W3C//DTD SVG 20010904//EN"
 "http://www.w3.org/TR/2001/REC-SVG-20010904/DTD/svg10.dtd">
<svg version="1.0" xmlns="http://www.w3.org/2000/svg"
 width="260.000000pt" height="260.000000pt" viewBox="0 0 260.000000 260.000000"
 preserveAspectRatio="xMidYMid meet">
<metadata>
Created by potrace 1.14, written by Peter Selinger 2001-2017
</metadata>
<g transform="translate(0.000000,260.000000) scale(0.100000,-0.100000)"
fill="#000000" stroke="none">
<path d="M0 1300 l0 -1300 1300 0 1300 0 0 1300 0 1300 -1300 0 -1300 0 0
-1300z m890 975 c143 -40 157 -41 189 -17 17 12 42 22 57 22 22 0 25 -3 21
-22 -3 -13 -18 -86 -32 -163 -15 -77 -30 -144 -35 -148 -4 -5 -17 -6 -28 -3
-15 5 -23 22 -32 68 -16 85 -46 144 -88 176 -28 21 -48 27 -101 30 -114 5
-171 -42 -179 -147 -6 -86 13 -118 127 -210 124 -101 202 -184 237 -252 23
-44 28 -70 32 -145 4 -83 2 -97 -23 -153 -28 -63 -87 -126 -143 -155 -101 -52
-241 -56 -395 -11 -112 32 -124 32 -145 -5 -12 -22 -24 -30 -44 -30 -16 0 -28
3 -28 6 0 5 32 200 55 342 5 27 10 32 34 32 27 0 29 -3 34 -53 15 -125 80
-223 163 -246 95 -26 202 -2 240 55 78 114 52 225 -78 336 -117 99 -238 225
-258 270 -26 57 -27 160 -1 227 62 163 240 246 421 196z m1185 -40 c118 -39
185 -136 172 -247 -14 -113 -89 -186 -238 -233 l-55 -18 70 -36 c50 -26 79
-48 101 -79 28 -41 30 -50 30 -135 0 -83 -3 -97 -30 -145 -45 -83 -124 -139
-244 -175 -58 -18 -104 -21 -393 -24 l-328 -5 0 25 c0 19 7 26 28 32 40 10 70
31 86 64 12 22 215 755 240 861 12 56 -22 90 -90 90 -26 0 -38 14 -30 36 5 13
46 15 313 12 276 -3 314 -5 368 -23z m35 -1319 c0 -3 -32 -30 -72 -60 l-71
-56 -656 1 c-361 1 -693 4 -738 7 l-82 7 62 52 62 52 748 0 c411 1 747 -1 747
-3z m-1585 -438 c27 -62 54 -118 62 -124 24 -20 14 -24 -54 -24 -60 1 -66 2
-50 15 13 9 17 20 12 34 -5 16 -15 21 -45 21 -25 0 -40 -5 -44 -16 -10 -25 -7
-34 9 -34 8 0 15 -4 15 -10 0 -5 -18 -10 -40 -10 -43 0 -48 5 -26 29 7 9 33
64 57 124 24 59 46 107 50 107 3 0 28 -51 54 -112z m2003 72 c5 -47 -13 -59
-32 -21 -26 50 -94 54 -84 5 2 -11 26 -31 53 -46 86 -46 95 -122 18 -155 -29
-11 -45 -13 -70 -5 -20 6 -35 6 -39 1 -12 -20 -24 4 -24 47 0 50 13 57 32 17
17 -35 55 -55 80 -42 32 17 17 50 -37 82 -59 34 -65 42 -65 84 0 50 39 74 109
69 55 -4 56 -5 59 -36z m-2278 10 c25 -25 25 -52 0 -75 -19 -17 -19 -18 5 -37
39 -31 32 -79 -16 -103 -17 -9 -57 -15 -104 -15 -70 0 -95 10 -60 24 22 8 22
194 0 202 -37 14 -8 24 70 24 72 0 88 -3 105 -20z m640 -22 c0 -43 -5 -44 -24
-6 -6 13 -20 24 -31 26 -19 3 -20 -2 -17 -103 3 -83 6 -105 18 -105 8 0 14 -4
14 -10 0 -6 -30 -10 -70 -10 -67 0 -93 12 -50 23 18 5 20 14 20 106 0 81 -3
101 -14 101 -8 0 -22 -7 -30 -16 -9 -8 -16 -22 -16 -30 0 -8 -4 -14 -10 -14
-5 0 -10 18 -10 40 l0 40 110 0 110 0 0 -42z m300 2 c0 -22 -4 -40 -10 -40 -5
0 -10 5 -10 12 0 16 -31 48 -47 48 -10 0 -13 -24 -13 -105 0 -87 3 -105 15
-105 8 0 15 -4 15 -10 0 -6 -28 -10 -65 -10 -37 0 -65 4 -65 10 0 6 7 10 15
10 12 0 15 18 15 105 0 88 -2 105 -15 105 -9 0 -24 -13 -33 -30 -23 -40 -32
-38 -32 10 l0 40 115 0 115 0 0 -40z m280 0 c0 -48 -9 -50 -32 -10 -14 24 -24
30 -53 30 -35 0 -35 0 -35 -45 0 -52 22 -62 42 -20 19 42 28 28 28 -40 0 -37
-4 -65 -10 -65 -5 0 -10 6 -10 14 0 16 -26 46 -41 46 -5 0 -9 -22 -9 -50 0
-49 1 -50 31 -50 21 0 40 10 61 30 36 36 38 37 38 6 0 -54 -4 -56 -121 -56
-66 0 -109 4 -109 10 0 6 7 10 15 10 12 0 15 18 15 101 0 85 -3 104 -17 115
-15 11 -1 13 95 14 l112 0 0 -40z m280 22 c31 -25 30 -70 -3 -96 l-25 -21 44
-57 44 -58 -43 0 c-40 0 -44 3 -79 58 l-38 57 0 -47 c0 -36 4 -48 15 -48 8 0
15 -4 15 -10 0 -6 -28 -10 -65 -10 -37 0 -65 4 -65 10 0 6 7 10 15 10 12 0 15
18 15 105 0 87 -3 105 -15 105 -8 0 -15 5 -15 10 0 6 36 10 89 10 71 0 93 -4
111 -18z m245 8 c-3 -5 -13 -10 -21 -10 -21 0 -21 -198 1 -206 34 -13 11 -24
-50 -24 -37 0 -65 4 -65 10 0 6 7 10 15 10 12 0 15 18 15 105 0 87 -3 105 -15
105 -8 0 -15 5 -15 10 0 6 30 10 71 10 44 0 68 -4 64 -10z m275 -30 c0 -22 -4
-40 -10 -40 -5 0 -10 6 -10 14 0 25 -30 46 -66 46 -34 0 -34 0 -34 -46 0 -38
3 -45 18 -42 9 2 21 13 27 26 17 38 25 24 25 -43 0 -37 -4 -65 -10 -65 -5 0
-10 9 -10 20 0 16 -26 40 -44 40 -3 0 -6 -20 -6 -45 0 -31 5 -47 15 -51 25
-10 63 4 89 33 31 33 37 29 27 -17 l-7 -35 -112 -3 c-63 -1 -112 1 -112 7 0 5
9 11 20 14 18 5 20 14 20 100 0 87 -2 96 -22 110 -22 15 -16 16 90 16 l112 1
0 -40z"/>
<path d="M1795 2176 c-9 -13 -40 -112 -69 -219 l-52 -195 40 5 c150 16 212 48
251 127 32 65 38 178 13 237 -28 66 -150 96 -183 45z"/>
<path d="M1652 1679 c-5 -13 -33 -115 -62 -227 -40 -152 -51 -208 -43 -220 25
-40 156 -33 225 13 73 49 123 160 123 275 0 123 -43 167 -171 178 -60 4 -64 3
-72 -19z"/>
<path d="M432 455 c-10 -34 -10 -35 18 -35 28 0 29 1 18 30 -14 43 -23 44 -36
5z"/>
<path d="M150 516 c0 -43 1 -45 23 -37 32 12 32 75 0 79 -21 3 -23 -1 -23 -42z"/>
<path d="M150 405 c0 -32 5 -47 15 -51 22 -9 45 14 45 45 0 31 -16 51 -42 51
-15 0 -18 -8 -18 -45z"/>
<path d="M1650 511 c0 -48 1 -50 23 -42 18 7 22 16 22 47 0 33 -4 40 -22 42
-21 3 -23 0 -23 -47z"/>
</g>
</svg>
